# xmcd
#
# Track frame offsets:
#	150
#	9432
#	23995
#	37161
#	46932
#	56627
#	77069
#	86723
#	100497
#	119369
#	130841
#	144172
#	161602
#	173468
#	185025
#
# Disc length: 2610 seconds
#
# Revision: 0
# Processed by: cddbd v1.5.1PL0 Copyright (c) Steve Scherf et al.
# Submitted via: dBpowerAMP V4.0
#
DISCID=c30a300f
DTITLE=Wild Willie and Big Deal - Boogie Station
DYEAR=2003
DGENRE=
TTITLE0=Wild Willie is Back in Town
TTITLE1=Turn on Your Radio
TTITLE2=Anybody Home
TTITLE3=Big Black Cadillac
TTITLE4=Marie, Marie
TTITLE5=You're Bad (Down to Your Bone)
TTITLE6=Try Me
TTITLE7=Running Wild
TTITLE8=Ain't Nobody
TTITLE9=Doctor on the Line
TTITLE10=Pills
TTITLE11=Blue River
TTITLE12=Coolest Cat in Town
TTITLE13=18 Wheeler
TTITLE14=I Want to Be Free
EXTD=
EXTT0=
EXTT1=
EXTT2=
EXTT3=
EXTT4=
EXTT5=
EXTT6=
EXTT7=
EXTT8=
EXTT9=
EXTT10=
EXTT11=
EXTT12=
EXTT13=
EXTT14=
PLAYORDER=
